<svg id="visual" viewBox="0 0 1920 1080" width="1920" height="1080" xmlns="http://www.w3.org/2000/svg" xmlns:xlink="http://www.w3.org/1999/xlink" version="1.1"><rect x="0" y="0" width="1920" height="1080" fill="#002233"></rect><path d="M540 1080L624.8 1035C709.7 990 879.3 900 862.8 810C846.3 720 643.7 630 520.5 540C397.3 450 353.7 360 565.8 270C778 180 1246 90 1480 45L1714 0L1920 0L1920 45C1920 90 1920 180 1920 270C1920 360 1920 450 1920 540C1920 630 1920 720 1920 810C1920 900 1920 990 1920 1035L1920 1080Z" fill="#0066FF" stroke-linecap="round" stroke-linejoin="miter"></path></svg>